<?xml version="1.0" encoding="UTF-8" ?>
<!DOCTYPE svg PUBLIC "-//W3C//DTD SVG 1.1//EN" "http://www.w3.org/Graphics/SVG/1.1/DTD/svg11.dtd">
<svg width="854pt" height="854pt" viewBox="0 0 854 854" version="1.1" xmlns="http://www.w3.org/2000/svg">
<g id="#fefefeff">
<path fill="#fefefe" opacity="1.00" d=" M 167.12 154.12 C 258.91 154.14 350.73 153.48 442.51 154.45 C 503.09 157.20 563.37 178.66 609.58 218.42 C 668.00 267.29 703.33 342.07 704.92 418.14 C 705.01 509.06 705.13 600.01 704.87 690.93 C 608.31 691.04 511.74 691.08 415.18 690.90 C 324.33 684.32 238.56 627.82 197.97 546.03 C 176.57 505.74 167.57 459.77 167.65 414.37 C 166.24 327.64 167.25 240.86 167.12 154.12 M 421.63 245.56 C 355.53 250.75 294.87 295.86 270.41 357.40 C 252.05 401.00 252.77 451.71 270.69 495.32 C 293.38 551.69 346.55 594.32 406.41 604.53 C 472.68 616.96 544.51 588.75 583.86 533.86 C 634.49 468.44 630.26 368.38 575.08 306.92 C 537.51 263.68 478.87 239.36 421.63 245.56 Z" />
<path fill="#fefefe" opacity="1.00" d=" M 424.61 289.55 C 473.27 283.74 523.71 307.47 551.14 347.86 C 577.41 385.43 583.36 436.76 564.93 478.94 C 544.72 529.22 492.26 564.29 437.96 563.11 C 370.32 564.95 307.50 508.50 301.87 441.07 C 291.30 367.90 351.15 294.67 424.61 289.55 M 426.71 320.55 C 412.27 322.11 394.22 327.00 384.58 335.57 C 405.88 340.02 415.64 368.45 400.81 384.84 C 385.47 404.36 352.65 395.52 347.15 371.92 C 329.75 399.68 327.48 435.86 339.99 466.03 C 358.00 512.52 411.94 541.54 460.68 529.67 C 511.23 519.73 549.68 468.89 543.83 417.38 C 541.24 359.68 483.93 312.36 426.71 320.55 Z" />
</g>
<g id="#010101ff">
</g>
</svg>
